<svg width="84" height="85" viewBox="0 0 84 85" fill="none" xmlns="http://www.w3.org/2000/svg">
<g filter="url(#filter0_d_828_500)">
<g filter="url(#filter1_d_828_500)">
<rect x="4" width="76" height="77" rx="38" fill="#F3931D"/>
</g>
</g>
<g clip-path="url(#clip0_828_500)">
<path d="M33.6667 34.8333H27.4167V28.5833H23.25V34.8333H17V39H23.25V45.25H27.4167V39H33.6667V34.8333ZM54.5 36.9167C57.9583 36.9167 60.7292 34.125 60.7292 30.6667C60.7292 27.2083 57.9583 24.4167 54.5 24.4167C53.8333 24.4167 53.1875 24.5208 52.6042 24.7083C53.7917 26.3958 54.4792 28.4375 54.4792 30.6667C54.4792 32.8958 53.7708 34.9167 52.6042 36.625C53.1875 36.8125 53.8333 36.9167 54.5 36.9167ZM44.0833 36.9167C47.5417 36.9167 50.3125 34.125 50.3125 30.6667C50.3125 27.2083 47.5417 24.4167 44.0833 24.4167C40.625 24.4167 37.8333 27.2083 37.8333 30.6667C37.8333 34.125 40.625 36.9167 44.0833 36.9167ZM57.875 41.4167C59.6042 42.9375 60.75 44.875 60.75 47.3333V51.5H67V47.3333C67 44.125 62.0625 42.1458 57.875 41.4167ZM44.0833 41.0833C39.9167 41.0833 31.5833 43.1667 31.5833 47.3333V51.5H56.5833V47.3333C56.5833 43.1667 48.25 41.0833 44.0833 41.0833Z" fill="white"/>
</g>
<defs>
<filter id="filter0_d_828_500" x="0" y="0" width="84" height="85" filterUnits="userSpaceOnUse" color-interpolation-filters="sRGB">
<feFlood flood-opacity="0" result="BackgroundImageFix"/>
<feColorMatrix in="SourceAlpha" type="matrix" values="0 0 0 0 0 0 0 0 0 0 0 0 0 0 0 0 0 0 127 0" result="hardAlpha"/>
<feOffset dy="4"/>
<feGaussianBlur stdDeviation="2"/>
<feComposite in2="hardAlpha" operator="out"/>
<feColorMatrix type="matrix" values="0 0 0 0 0.733333 0 0 0 0 0.733333 0 0 0 0 0.733333 0 0 0 0.25 0"/>
<feBlend mode="normal" in2="BackgroundImageFix" result="effect1_dropShadow_828_500"/>
<feBlend mode="normal" in="SourceGraphic" in2="effect1_dropShadow_828_500" result="shape"/>
</filter>
<filter id="filter1_d_828_500" x="0" y="0" width="84" height="85" filterUnits="userSpaceOnUse" color-interpolation-filters="sRGB">
<feFlood flood-opacity="0" result="BackgroundImageFix"/>
<feColorMatrix in="SourceAlpha" type="matrix" values="0 0 0 0 0 0 0 0 0 0 0 0 0 0 0 0 0 0 127 0" result="hardAlpha"/>
<feOffset dy="4"/>
<feGaussianBlur stdDeviation="2"/>
<feComposite in2="hardAlpha" operator="out"/>
<feColorMatrix type="matrix" values="0 0 0 0 0.733333 0 0 0 0 0.733333 0 0 0 0 0.733333 0 0 0 0.25 0"/>
<feBlend mode="normal" in2="BackgroundImageFix" result="effect1_dropShadow_828_500"/>
<feBlend mode="normal" in="SourceGraphic" in2="effect1_dropShadow_828_500" result="shape"/>
</filter>
<clipPath id="clip0_828_500">
<rect width="50" height="50" fill="white" transform="translate(17 14)"/>
</clipPath>
</defs>
</svg>
