<svg width="279" height="324" viewBox="0 0 279 324" fill="none" xmlns="http://www.w3.org/2000/svg">
<rect x="0.5" width="278" height="324" rx="10" fill="#D9D9D9"/>
<ellipse cx="139.5" cy="120.5" rx="89" ry="80.5" fill="#C7C7C7"/>
<path d="M148.25 81H113.25C110.929 81 108.704 81.8429 107.063 83.3431C105.422 84.8434 104.5 86.8783 104.5 89V153C104.5 155.122 105.422 157.157 107.063 158.657C108.704 160.157 110.929 161 113.25 161H165.75C168.071 161 170.296 160.157 171.937 158.657C173.578 157.157 174.5 155.122 174.5 153V105L148.25 81ZM127.053 142.816C125.189 144.232 122.359 144.9 118.898 144.9C116.82 144.9 115.354 144.78 114.357 144.66V128.776C116.146 128.54 117.952 128.429 119.76 128.444C123.12 128.444 125.299 128.996 127.001 130.172C128.838 131.42 129.993 133.412 129.993 136.26C129.993 139.36 128.759 141.496 127.053 142.816V142.816ZM140.134 145C134.884 145 131.818 141.376 131.818 136.768C131.818 131.924 135.199 128.304 140.423 128.304C145.853 128.304 148.819 132.02 148.819 136.484C148.814 141.784 145.297 145 140.134 145V145ZM160.5 141.952C161.703 141.952 163.042 141.708 163.834 141.424L164.438 144.276C163.703 144.612 162.049 144.972 159.901 144.972C153.789 144.972 150.639 141.496 150.639 136.888C150.639 131.372 154.939 128.304 160.294 128.304C162.368 128.304 163.939 128.688 164.647 129.024L163.834 131.928C162.769 131.526 161.626 131.322 160.474 131.328C157.298 131.328 154.83 133.08 154.83 136.68C154.83 139.916 156.93 141.952 160.5 141.952V141.952ZM148.25 109H143.875V89L165.75 109H148.25Z" fill="white"/>
</svg>
