<svg width="50" height="50" viewBox="0 0 50 50" fill="none" xmlns="http://www.w3.org/2000/svg">
<circle cx="25" cy="25" r="25" fill="#00A4EB"/>
<path d="M39.2416 36.7371H12.2759C11.6274 36.7371 11.1035 37.255 11.1035 37.8961V39.2001C11.1035 39.3595 11.2354 39.4899 11.3966 39.4899H40.1209C40.2821 39.4899 40.414 39.3595 40.414 39.2001V37.8961C40.414 37.255 39.8901 36.7371 39.2416 36.7371ZM16.4417 33.6945C16.515 33.6945 16.5882 33.6873 16.6615 33.6764L22.8241 32.6079C22.8973 32.5934 22.967 32.5608 23.0182 32.5065L38.5492 17.1525C38.5831 17.119 38.6101 17.0792 38.6285 17.0353C38.6468 16.9915 38.6563 16.9445 38.6563 16.8971C38.6563 16.8497 38.6468 16.8027 38.6285 16.7589C38.6101 16.7151 38.5831 16.6753 38.5492 16.6418L32.4599 10.6182C32.3903 10.5494 32.2987 10.5132 32.1998 10.5132C32.1008 10.5132 32.0092 10.5494 31.9396 10.6182L16.4087 25.9722C16.3538 26.0266 16.3208 26.0918 16.3061 26.1642L15.2253 32.2566C15.1897 32.4506 15.2024 32.6503 15.2624 32.8384C15.3224 33.0265 15.4279 33.1972 15.5697 33.3359C15.8115 33.5677 16.1156 33.6945 16.4417 33.6945Z" fill="white"/>
</svg>
